OSU VS Wisconsin pre-game special and The Columbus Dispatch. Comments, complaints, suggestions, requests, always welcome. Please share and don't hit and run. GO BUCKS!!!  BEAT Wisconsin!!!!!!                                                                     ---------------------------------------------------------------------------------------------------------------------------------------------------------------------------------------------Buckeye_Blitz_720p_XVID_20101015-TTL.avi
Format                           : AVI
Format/Info                      : Audio Video Interleave
File size                        : 347 MiB
Duration                         : 1h 26mn
Overall bit rate                 : 558 Kbps
Movie name                       : Buckeye_Blitz_20101015.mpg
Director                         : created.with.SUPER(C).v2010.bld.37
Writing application              : SUPER(C)   

Video
ID                               : 0
Format                           : MPEG-4 Visual
Format profile                   : Simple@L3
Format settings, BVOP            : No
Format settings, QPel            : No
Format settings, GMC             : No warppoints
Format settings, Matrix          : Default (H.263)
Codec ID                         : XVID
Codec ID/Hint                    : XviD
Duration                         : 43mn 25s
Bit rate                         : 1 008 Kbps
Width                            : 624 pixels
Height                           : 352 pixels
Display aspect ratio             : 16:9
Frame rate                       : 23.976 fps
Resolution                       : 8 bits
Colorimetry                      : 4:2:0
Scan type                        : Progressive
Bits/(Pixel*Frame)               : 0.191
Stream size                      : 313 MiB (90%)
Writing library                  : XviD 1.1.2 (UTC 2006-11-01)

Audio
ID                               : 1
Format                           : MPEG Audio
Format version                   : Version 2
Format profile                   : Layer 3
Mode                             : Joint stereo
Format_Settings_ModeExtension    : MS Stereo
Codec ID                         : 55
Codec ID/Hint                    : MP3
Duration                         : 1h 26mn
Bit rate mode                    : Constant
Bit rate                         : 96.0 Kbps
Channel(s)                       : 2 channels
Sampling rate                    : 22.05 KHz
Stream size                      : 29.8 MiB (9%)
Alignment                        : Aligned on interleaves
Interleave, duration             : 26 ms (0.63 video frame)
Interleave, preload duration     : 26 ms
Writing library                  : LAME3.98

